<?xml version="1.0" encoding="UTF-8" standalone="yes"?><svg xmlns="http://www.w3.org/2000/svg" xmlns:xlink="http://www.w3.org/1999/xlink" height="226px" style="width:1562px;height:226px;" version="1.1" viewBox="0 0 1562 226" width="1562px"><defs><filter height="300%" id="f1" width="300%" x="-1" y="-1"><feGaussianBlur result="blurOut" stdDeviation="2.0"/><feColorMatrix in="blurOut" result="blurOut2" type="matrix" values="0 0 0 0 0 0 0 0 0 0 0 0 0 0 0 0 0 0 .4 0"/><feOffset dx="4.0" dy="4.0" in="blurOut2" result="blurOut3"/><feBlend in="SourceGraphic" in2="blurOut3" mode="normal"/></filter></defs><g><ellipse cx="748.5" cy="18" fill="#FEFECE" filter="url(#f1)" rx="8" ry="8" style="stroke: #A80036; stroke-width: 2.0;"/><path d="M748.5,26 L748.5,53 M735.5,34 L761.5,34 M748.5,53 L735.5,68 M748.5,53 L761.5,68 " fill="#FEFECE" filter="url(#f1)" style="stroke: #A80036; stroke-width: 2.0;"/><text fill="#000000" font-family="sans-serif" font-size="14" lengthAdjust="spacingAndGlyphs" textLength="32" x="732.5" y="87.9951">User</text><ellipse cx="130.5326" cy="184.8065" fill="#FEFECE" filter="url(#f1)" rx="124.5326" ry="27.3065" style="stroke: #A80036; stroke-width: 1.5;"/><text fill="#000000" font-family="sans-serif" font-size="14" lengthAdjust="spacingAndGlyphs" textLength="229" x="16.0326" y="189.455">Alle Songs von einem Interpreten</text><ellipse cx="433.5569" cy="185.0114" fill="#FEFECE" filter="url(#f1)" rx="143.0569" ry="31.0114" style="stroke: #A80036; stroke-width: 1.5;"/><text fill="#000000" font-family="sans-serif" font-size="14" lengthAdjust="spacingAndGlyphs" textLength="268" x="299.5569" y="189.6598">Alle Songs mit BPM 120 für Lauftraining</text><ellipse cx="748.3513" cy="184.7703" fill="#FEFECE" filter="url(#f1)" rx="136.8513" ry="29.7703" style="stroke: #A80036; stroke-width: 1.5;"/><text fill="#000000" font-family="sans-serif" font-size="14" lengthAdjust="spacingAndGlyphs" textLength="255" x="620.8513" y="189.4187">Alle Songs die länger als 5 min laufen</text><ellipse cx="1079.4172" cy="185.1834" fill="#FEFECE" filter="url(#f1)" rx="158.9172" ry="34.1834" style="stroke: #A80036; stroke-width: 1.5;"/><text fill="#000000" font-family="sans-serif" font-size="14" lengthAdjust="spacingAndGlyphs" textLength="301" x="928.9172" y="189.8319">Alle Songs mit einem bestimmten Substring</text><ellipse cx="1414.6446" cy="185.1289" fill="#FEFECE" filter="url(#f1)" rx="141.1446" ry="30.6289" style="stroke: #A80036; stroke-width: 1.5;"/><text fill="#000000" font-family="sans-serif" font-size="14" lengthAdjust="spacingAndGlyphs" textLength="264" x="1282.6446" y="189.7774">Alle Songs aus einem bestimmten Jahr</text><path d="M732.449,53.766 C672.045,66.082 452.67,111.049 272.5,151 C254.996,154.8814 236.306,159.1416 218.426,163.2737 " fill="none" style="stroke: #A80036; stroke-width: 1.0;"/><polygon fill="#A80036" points="213.407,164.4354,223.0771,166.3036,218.2783,163.3083,221.2736,158.5095,213.407,164.4354" style="stroke: #A80036; stroke-width: 1.0;"/><path d="M732.446,57.304 C690.612,75.033 576.336,123.4645 501.808,155.0504 " fill="none" style="stroke: #A80036; stroke-width: 1.0;"/><polygon fill="#A80036" points="496.958,157.106,506.8054,157.2764,501.5615,155.1547,503.6832,149.9108,496.958,157.106" style="stroke: #A80036; stroke-width: 1.0;"/><path d="M748.5,91.28 C748.5,109.903 748.5,131.7223 748.5,149.5143 " fill="none" style="stroke: #A80036; stroke-width: 1.0;"/><polygon fill="#A80036" points="748.5,154.8987,752.5,145.8987,748.5,149.8987,744.5,145.8987,748.5,154.8987" style="stroke: #A80036; stroke-width: 1.0;"/><path d="M764.914,57.12 C807.505,74.298 923.701,121.1628 1002.309,152.8672 " fill="none" style="stroke: #A80036; stroke-width: 1.0;"/><polygon fill="#A80036" points="1006.96,154.7435,1000.1091,147.6678,1002.3229,152.8735,997.1171,155.0872,1006.96,154.7435" style="stroke: #A80036; stroke-width: 1.0;"/><path d="M764.742,53.648 C827.889,65.902 1063.12,111.677 1256.5,151 C1273.94,154.5473 1292.46,158.3662 1310.44,162.1034 " fill="none" style="stroke: #A80036; stroke-width: 1.0;"/><polygon fill="#A80036" points="1315.5,163.1551,1307.4987,157.4123,1310.604,162.1407,1305.8756,165.2459,1315.5,163.1551" style="stroke: #A80036; stroke-width: 1.0;"/></g></svg>