<?xml version="1.0" encoding="UTF-8" standalone="yes"?><svg xmlns="http://www.w3.org/2000/svg" xmlns:xlink="http://www.w3.org/1999/xlink" height="480px" style="width:520px;height:480px;" version="1.1" viewBox="0 0 520 480" width="520px"><defs><filter height="300%" id="f1" width="300%" x="-1" y="-1"><feGaussianBlur result="blurOut" stdDeviation="2.0"/><feColorMatrix in="blurOut" result="blurOut2" type="matrix" values="0 0 0 0 0 0 0 0 0 0 0 0 0 0 0 0 0 0 .4 0"/><feOffset dx="4.0" dy="4.0" in="blurOut2" result="blurOut3"/><feBlend in="SourceGraphic" in2="blurOut3" mode="normal"/></filter></defs><g><rect fill="#FFFFFF" filter="url(#f1)" height="449" style="stroke: #000000; stroke-width: 2.0;" width="431" x="82" y="24"/><text fill="#000000" font-family="sans-serif" font-size="14" font-weight="bold" lengthAdjust="spacingAndGlyphs" textLength="95" x="250" y="38.9951">Anwendung</text><ellipse cx="297.5234" cy="93.1047" fill="#FEFECE" filter="url(#f1)" rx="156.0234" ry="33.6047" style="stroke: #A80036; stroke-width: 1.5;"/><text fill="#000000" font-family="sans-serif" font-size="14" lengthAdjust="spacingAndGlyphs" textLength="36" x="279.5234" y="81.4563">UC_1</text><text fill="#000000" font-family="sans-serif" font-size="14" lengthAdjust="spacingAndGlyphs" textLength="295" x="150.0234" y="97.7531">Finde Interpreten anhand eines Substrings</text><ellipse cx="297.7099" cy="194.142" fill="#FEFECE" filter="url(#f1)" rx="151.2099" ry="32.642" style="stroke: #A80036; stroke-width: 1.5;"/><text fill="#000000" font-family="sans-serif" font-size="14" lengthAdjust="spacingAndGlyphs" textLength="36" x="279.7099" y="182.4935">UC_2</text><text fill="#000000" font-family="sans-serif" font-size="14" lengthAdjust="spacingAndGlyphs" textLength="285" x="155.2099" y="198.7904">Zeige alle Songs zu einem Interpreten an</text><ellipse cx="297.3697" cy="299.0739" fill="#FEFECE" filter="url(#f1)" rx="175.8697" ry="37.5739" style="stroke: #A80036; stroke-width: 1.5;"/><text fill="#000000" font-family="sans-serif" font-size="14" lengthAdjust="spacingAndGlyphs" textLength="36" x="279.3697" y="287.4255">UC_3</text><text fill="#000000" font-family="sans-serif" font-size="14" lengthAdjust="spacingAndGlyphs" textLength="336" x="129.3697" y="303.7224">Suche nach Songs anhand der Beats per minute</text><ellipse cx="297.2751" cy="413.755" fill="#FEFECE" filter="url(#f1)" rx="199.2751" ry="42.255" style="stroke: #A80036; stroke-width: 1.5;"/><text fill="#000000" font-family="sans-serif" font-size="14" lengthAdjust="spacingAndGlyphs" textLength="36" x="279.2751" y="402.1066">UC_4</text><text fill="#000000" font-family="sans-serif" font-size="14" lengthAdjust="spacingAndGlyphs" textLength="384" x="105.2751" y="418.4035">Zeige eine Tabelle mit der Anzahl der Songs je Interpret</text><ellipse cx="22" cy="215.5" fill="#FEFECE" filter="url(#f1)" rx="8" ry="8" style="stroke: #A80036; stroke-width: 2.0;"/><path d="M22,223.5 L22,250.5 M9,231.5 L35,231.5 M22,250.5 L9,265.5 M22,250.5 L35,265.5 " fill="#FEFECE" filter="url(#f1)" style="stroke: #A80036; stroke-width: 2.0;"/><text fill="#000000" font-family="sans-serif" font-size="14" lengthAdjust="spacingAndGlyphs" textLength="32" x="6" y="285.4951">User</text><path d="M34.2038,205.314 C42.0055,183.975 54.5781,159.33 74,144 C95.6709,126.895 122.024,115.323 148.906,107.539 " fill="none" style="stroke: #A80036; stroke-width: 1.0;"/><polygon fill="#A80036" points="153.931,106.129,144.1849,104.7102,149.1171,107.4803,146.347,112.4125,153.931,106.129" style="stroke: #A80036; stroke-width: 1.0;"/><path d="M38.0941,244.075 C65.2701,238.809 124.736,227.285 179.778,216.619 " fill="none" style="stroke: #A80036; stroke-width: 1.0;"/><polygon fill="#A80036" points="184.749,215.656,175.1523,213.4417,179.8404,216.6074,176.6746,221.2955,184.749,215.656" style="stroke: #A80036; stroke-width: 1.0;"/><path d="M38.0941,249.87 C62.1293,254.44 111.422,263.812 160.573,273.157 " fill="none" style="stroke: #A80036; stroke-width: 1.0;"/><polygon fill="#A80036" points="165.636,274.119,157.5421,268.5076,160.7241,273.1846,156.047,276.3667,165.636,274.119" style="stroke: #A80036; stroke-width: 1.0;"/><path d="M33.5955,288.647 C41.3139,311.013 54.0012,337.335 74,354 C90.8592,368.048 110.709,378.831 131.493,387.103 " fill="none" style="stroke: #A80036; stroke-width: 1.0;"/><polygon fill="#A80036" points="136.224,388.937,129.2784,381.9543,131.5621,387.1297,126.3867,389.4133,136.224,388.937" style="stroke: #A80036; stroke-width: 1.0;"/></g></svg>